<svg xmlns="http://www.w3.org/2000/svg" width="158" height="27" viewBox="0 0 158 27">
    <g>
        <path fill="none" d="M0 0H158V27H0z" transform="translate(111 2) translate(-111 -2)"/>
        <path fill="#fff" d="M9.156-19.6L5.6-9.716h3.556v1.68H5.012L2.016.28.42-.336 7.532-20.16zM16.548-.308l-1.6.644L9.492-15.12l1.6-.644zm6.72-19.544L29.624-6.1l-1.512.784-5.46-11.816L19.348.224l-1.68-.336 3.752-19.74zM37.8.252l-3.752-17.276-2.576 6.272L29.9-11.4l3.472-8.456H35.2L39.48-.084zm12.824.084a8.939 8.939 0 0 1-4.76-1.3 9.177 9.177 0 0 1-3.346-3.586A10.68 10.68 0 0 1 41.3-9.66a12.539 12.539 0 0 1 .6-3.934 10.23 10.23 0 0 1 1.722-3.234L44.8-15.54a8.266 8.266 0 0 0-1.3 2.52 9.951 9.951 0 0 0-.462 3.08 9.6 9.6 0 0 0 .994 4.382 7.729 7.729 0 0 0 2.73 3.094 6.978 6.978 0 0 0 3.864 1.12 6.978 6.978 0 0 0 3.864-1.12 7.729 7.729 0 0 0 2.73-3.094 9.6 9.6 0 0 0 .994-4.382 9.518 9.518 0 0 0-.994-4.368 7.751 7.751 0 0 0-2.73-3.08 6.978 6.978 0 0 0-3.864-1.12 6.851 6.851 0 0 0-2.94.616l-.84-1.484a8.691 8.691 0 0 1 3.78-.812 8.939 8.939 0 0 1 4.76 1.3A9.177 9.177 0 0 1 58.73-15.3a10.621 10.621 0 0 1 1.218 5.082 11.74 11.74 0 0 1-1.218 5.374 9.586 9.586 0 0 1-3.346 3.794 8.534 8.534 0 0 1-4.76 1.386zm22.82-14.5a5.335 5.335 0 0 1-1.694 4.13 6.428 6.428 0 0 1-4.522 1.554H64.96V0h-1.736v-19.852h1.736v9.716h2.3a4.615 4.615 0 0 0 3.24-1.106 3.784 3.784 0 0 0 1.2-2.926 3.74 3.74 0 0 0-1.2-2.912 4.651 4.651 0 0 0-3.248-1.092H67.2v-1.68h.056A6.388 6.388 0 0 1 71.75-18.3a5.335 5.335 0 0 1 1.694 4.132zm.5 13.132L72.744.14 67.76-5.348l1.288-1.092zm12.88-.644V0H77v-19.852h1.736v8.68H86.1v1.68h-7.364v7.812zm-.14-16.492H81.2v-1.68h5.488zm14.2-1.68L107.24-6.1l-1.512.784-5.46-11.816L96.964.224l-1.68-.336 3.752-19.74zm14.532 20.1l-3.752-17.276-2.576 6.272-1.568-.648 3.472-8.456h1.82L117.1-.084zM126.952-19.6L123.4-9.716h3.556v1.68h-4.144l-3 8.316-1.6-.616 7.112-19.824zm7.392 19.292l-1.6.644-5.46-15.456 1.6-.644zm2.576-19.544h1.736V0h-1.736zm4.368 18.172h4.424V0h-4.424zm7.42-18.172h1.736V0h-1.736zm4.368 18.172h4.424V0h-4.424z" transform="translate(111 2) translate(-111 21.188)"/>
    </g>
</svg>
